<svg id="Layer_1" enable-background="new 0 0 512 512" height="512" viewBox="0 0 512 512" width="512" xmlns="http://www.w3.org/2000/svg"><g><g><path d="m492.076 254.015-325.596-111.327c-15.76-5.389-30.852 9.619-25.433 25.292l111.948 323.79c1.471 4.254 4.156 7.589 7.475 9.874 10.17 7 24.267 1.807 28.112-9.93l50.246-153.388 152.506-48.735c16.487-5.269 17.912-28.604 1.886-35.146-.374-.154-.755-.297-1.144-.43z" fill="#fee438"/><g fill="#f2d935"><path d="m302.5 350.307-48.545 143.737c1.548 3.177 3.816 5.742 6.515 7.6 10.17 7 24.267 1.807 28.112-9.93l50.246-153.388z"/><path d="m493.219 254.443c-.373-.152-.754-.295-1.143-.428l-325.596-111.327c-15.172-5.188-29.714 8.527-25.947 23.54l311.543 106.522c.389.133.77.276 1.143.428 10.881 4.442 13.708 16.623 9.246 25.637l28.867-9.225c16.488-5.269 17.912-28.604 1.887-35.147z"/></g></g><g fill="#060606"><path d="m135.738 280.225c-70.126-6.999-123.124-67.118-120.655-136.868 2.59-73.178 64.879-130.58 138.817-127.964 32.824 1.162 64.013 14.188 87.822 36.675 7.049 6.66 17.35-4.247 10.299-10.904-26.461-24.994-61.119-39.47-97.59-40.761-82.214-2.945-151.455 60.979-154.339 142.423-2.749 77.634 56.18 144.543 134.155 152.325 9.402.94 10.899-13.987 1.491-14.926z"/><path d="m152.973 41.594c-9.696-.333-10.22 14.647-.531 14.99 17.692.627 34.709 6.189 49.212 16.086 7.734 5.276 16.638-6.805 8.455-12.391-16.849-11.496-36.606-17.958-57.136-18.685z"/><path d="m116.154 62.507c9.072-3.425 3.771-17.46-5.301-14.031-40.491 15.296-67.637 52.908-69.156 95.822-.865 24.441 6.855 48.621 21.739 68.086 14.657 19.169 35.604 33 58.98 38.947 9.073 2.315 12.984-12.174 3.697-14.537-20.119-5.118-38.146-17.023-50.763-33.521-12.778-16.712-19.406-37.467-18.664-58.443 1.306-36.856 24.649-69.168 59.468-82.323z"/><path d="m496.048 247.498c-.506-.206-1.021-.399-1.546-.579l-325.595-111.328c-21.178-7.244-42.3 13.577-34.948 34.84l111.948 323.789c8.017 23.198 42.06 23.458 49.802-.172l20.944-63.94c3.02-9.214-11.234-13.887-14.254-4.67l-20.944 63.94c-3.351 10.226-17.822 10.207-21.372-.06l-111.948-323.79c-3.357-9.711 6.311-19.029 15.919-15.744l325.598 111.327c10.205 3.494 9.314 18.166-.602 21.333l-152.506 48.736c-2.293.733-4.095 2.522-4.844 4.81l-16.616 50.726c-3.019 9.214 11.237 13.889 14.254 4.67l15.424-47.083 148.854-47.568c22.437-7.171 24.633-40.174 2.432-49.237z"/><path d="m312.943 142.223c.532.092 13.485.141 19.326.108 9.689-.055 9.631-15.109-.084-15-3.574.021-7.344.035-10.475.041v-43.947c0-9.697-15-9.697-15 0v51.406c.001 3.654 2.632 6.775 6.233 7.392z"/><path d="m446.738 142.374c4.143 0 7.5-3.357 7.5-7.5v-10.806l16.795 16.203c6.95 6.708 17.411-4.046 10.414-10.795l-22.124-21.345 20.166-18.536c7.14-6.561-3.011-17.606-10.15-11.043l-15.101 13.88v-9.008c0-9.697-15-9.697-15 0v51.449c0 4.144 3.357 7.501 7.5 7.501z"/><path d="m356.421 142.374c4.143 0 7.5-3.357 7.5-7.5v-51.449c0-9.697-15-9.697-15 0v51.449c0 4.143 3.357 7.5 7.5 7.5z"/><path d="m504.5 75.925c-4.143 0-7.5 3.357-7.5 7.5v27.585c0 9.697 15 9.697 15 0v-27.585c0-4.142-3.358-7.5-7.5-7.5z"/><path d="m240.587 109.15c0 18.32 14.904 33.225 33.225 33.225 8.427 0 16.517-3.452 21.955-9.945 6.228-7.433-5.268-17.063-11.498-9.633-2.491 2.974-6.655 4.578-10.457 4.578-10.049 0-18.225-8.176-18.225-18.225s8.176-18.225 18.225-18.225c3.652 0 7.174 1.075 10.185 3.108 8.037 5.426 16.433-7.002 8.396-12.43-5.499-3.715-11.925-5.679-18.581-5.679-18.321.001-33.225 14.906-33.225 33.226z"/><path d="m406.338 142.374c8.428 0 16.509-3.454 21.951-9.941 6.234-7.427-5.26-17.072-11.49-9.641-2.499 2.974-6.649 4.582-10.461 4.582-10.05 0-18.226-8.176-18.226-18.225s8.176-18.225 18.226-18.225c3.652 0 7.174 1.075 10.186 3.108 8.032 5.434 16.43-7.003 8.395-12.43-5.5-3.715-11.925-5.679-18.58-5.679-18.32 0-33.226 14.904-33.226 33.225s14.905 33.226 33.225 33.226z"/><path d="m504.5 126.301c-9.652 0-9.668 15 0 15 9.651 0 9.667-15 0-15z"/></g></g></svg>