<svg xmlns="http://www.w3.org/2000/svg" width="1216" height="528"
     viewBox="0 0 1216 528" fill="none">
  <g opacity="0.5">
    <path fill-rule="evenodd" clip-rule="evenodd"
          d="M731.049 0H731.635V34.597L791.564 0H792.769L852.844 34.685V0H853.431V34.679L913.5 0H914.704L974.779 34.685V0H975.365V34.685L1035.44 0H1036.65L1096.72 34.685V0H1097.31V34.685L1157.38 0H1158.59L1216 33.148V33.821L1158.28 0.494995V69.884L1216 36.557V37.231L1158.57 70.39L1216 103.55V104.223L1158.28 70.896V140.286L1216 106.958V107.633L1158.57 140.792L1216 173.951V174.625L1158.28 141.297V210.687L1216 177.36V178.034L1158.57 211.193L1216 244.352V245.026L1158.28 211.699V281.089L1216 247.762V248.436L1158.57 281.595L1216 314.754V315.428L1158.28 282.101V351.491L1216 318.163V318.837L1158.57 351.996L1216 385.155V385.829L1158.28 352.502V421.892L1216 388.565V389.239L1158.57 422.398L1216 455.556V456.231L1158.28 422.904V492.294L1216 458.966V459.641L1158.57 492.799L1216 525.958V526.633L1158.28 493.305V528H1157.69V493.303L1157.69 493.304L1097.59 528H1096.43L1036.34 493.303L1036.34 528H1035.75V493.311L975.665 528H974.491L914.398 493.304V528H913.812V493.304L853.718 528H852.557L792.459 493.305V528H791.872L791.871 493.303L731.777 528H730.908L670.813 493.303V528H670.227V493.305L610.128 528H608.967L548.873 493.304V528H548.287V493.303L488.199 528H487.025L426.934 493.305V528H426.347L426.346 493.303L366.252 528H365.09L304.997 493.304L304.995 493.303V528H304.408V493.311L244.322 528H243.149L183.055 493.304V528H182.469V493.304L122.37 528H121.21L61.12 493.305V528H60.53V493.303V493.304L0.430054 528H0V0H0.290039V34.597L60.22 0H61.4301L121.5 34.685V0H122.09V34.679L182.156 0H183.362L243.436 34.685V0H244.023V34.685L304.098 0H305.303L365.378 34.685V0H365.965V34.685L426.037 0H427.245L487.319 34.685V0H487.906V34.685L547.978 0H549.187L609.254 34.679V0H609.841V34.685L669.914 0H671.122L731.049 34.597V0ZM61.41 351.996L121.5 386.692V317.3L61.41 351.996ZM244.023 35.694V105.087L304.117 70.39L244.023 35.694ZM427.225 351.996L487.319 386.692V317.3L427.225 351.996ZM792.459 282.101V351.491L852.55 316.796L792.459 282.101ZM853.431 387.702V457.094L913.524 422.398L853.431 387.702ZM488.193 316.796L548.287 351.491V282.1L488.193 316.796ZM488.193 387.197L548.287 421.893V352.501L488.193 387.197ZM792.75 70.39L852.844 105.087V35.694L792.75 70.39ZM853.431 246.904V316.291L913.518 281.595L853.431 246.904ZM914.692 492.799L974.779 527.495V458.109L914.692 492.799ZM183.055 0.492981V69.886L243.149 35.189L183.055 0.492981ZM670.813 0.492981V69.886L730.908 35.189L670.813 0.492981ZM244.316 175.992L304.408 210.687V141.297L244.316 175.992ZM304.995 282.099V351.493L304.997 351.491L365.09 316.796L304.997 282.1L304.995 282.099ZM426.346 140.288V70.894L366.252 105.591L426.346 140.288ZM610.135 316.796L670.227 351.491V282.101L610.135 316.796ZM792.75 492.799L852.844 527.495V458.104L792.75 492.799ZM792.458 0.494995V69.885L852.55 35.19L792.458 0.494995ZM244.316 105.591L304.408 140.286V70.896L244.316 105.591ZM731.635 176.585V245.802L791.583 211.193L731.635 176.585ZM853.431 458.109V527.495L913.525 492.799L853.431 458.109ZM853.431 317.306V386.692L913.518 351.996L853.431 317.306ZM792.75 351.996L852.844 386.692V317.3L792.75 351.996ZM305.284 492.799L365.378 527.495V458.109L305.284 492.799ZM549.167 351.996L609.254 386.692V317.306L549.167 351.996ZM60.53 351.492V282.099V282.1L0.430054 316.796L60.53 351.492ZM1097.31 458.109V527.495L1157.4 492.799L1097.31 458.109ZM1036.63 211.193L1096.72 245.89V176.497L1036.63 211.193ZM975.366 458.104V527.495L1035.46 492.799L975.366 458.104ZM548.873 282.1V351.491L608.967 316.796L548.873 282.1ZM183.055 352.501V421.893L243.149 387.197L183.055 352.501ZM487.906 317.3V386.692L547.999 351.996L487.906 317.3ZM1036.34 141.296V210.689L1096.43 175.992L1036.34 141.296ZM1036.63 351.996L1096.72 386.692V317.3L1036.63 351.996ZM426.934 141.297V210.687L487.025 175.992L426.934 141.297ZM1157.69 281.09L1157.69 281.092V211.696L1157.69 211.698L1097.59 246.394L1157.69 281.09ZM365.965 458.109V527.495L426.058 492.799L365.965 458.109ZM61.12 141.297V210.687L121.21 175.992L61.12 141.297ZM0.290039 106.184V175.4L60.24 140.792L0.290039 106.184ZM609.841 176.497V245.889L669.934 211.193L609.841 176.497ZM975.66 316.796L1035.75 351.491V282.101L975.66 316.796ZM1097.31 317.3V386.692L1157.4 351.996L1097.31 317.3ZM122.09 35.694V105.08L182.175 70.39L122.09 35.694ZM61.41 70.39L121.5 105.087V35.694L61.41 70.39ZM60.53 210.689V210.69V141.296L0.430054 175.992L60.53 210.689ZM671.102 140.792L731.049 175.4V106.184L671.102 140.792ZM0.290039 458.191V527.408L60.24 492.799L0.290039 458.191ZM548.873 141.296V210.688L608.966 175.992L548.873 141.296ZM426.346 69.886V0.492981L366.252 35.189L426.346 69.886ZM61.41 281.595L121.5 316.291V246.899L61.41 281.595ZM671.102 492.799L731.049 527.407V458.191L671.102 492.799ZM610.135 35.189L670.226 69.885V0.494019L610.135 35.189ZM60.53 140.288V70.894L0.430054 105.592L60.53 140.288ZM609.841 246.899V316.291L669.934 281.595L609.841 246.899ZM305.284 351.996L365.378 386.692V317.3L305.284 351.996ZM487.906 246.899V316.291L547.999 281.595L487.906 246.899ZM365.965 246.899V316.291L426.058 281.595L365.965 246.899ZM426.346 421.893V352.506L366.252 387.197L426.346 421.893ZM975.366 317.3V386.692L1035.46 351.996L975.366 317.3ZM853.718 387.197L913.812 421.893V352.501L853.718 387.197ZM1097.31 35.694V105.087L1157.4 70.39L1097.31 35.694ZM914.686 422.398L974.779 457.094V387.702L914.686 422.398ZM365.965 317.3V386.692L426.058 351.996L365.965 317.3ZM304.994 70.894V140.288H304.997L365.09 105.591L304.997 70.895L304.994 70.894ZM183.055 141.296V210.689L243.149 175.992L183.055 141.296ZM183.055 282.1V351.491L243.149 316.796L183.055 282.1ZM914.398 352.501V421.893L974.491 387.197L914.398 352.501ZM914.686 351.996L974.779 386.692V317.3L914.686 351.996ZM1036.63 281.595L1096.72 316.291V246.899L1036.63 281.595ZM1036.34 70.894V140.288L1096.43 105.591L1036.34 70.894ZM183.343 281.595L243.436 316.291V246.899L183.343 281.595ZM0.290039 387.789V457.007L60.24 422.398L0.290039 387.789ZM671.102 211.193L731.049 245.802V176.585L671.102 211.193ZM426.934 0.494995V69.884L487.025 35.189L426.934 0.494995ZM0.290039 317.389V386.605L60.24 351.996L0.290039 317.389ZM671.102 422.398L731.049 457.006V387.789L671.102 422.398ZM670.813 352.5V421.894L730.908 387.197L670.813 352.5ZM61.12 0.494995V69.885L121.21 35.19L61.12 0.494995ZM183.343 351.996L243.436 386.692V317.3L183.343 351.996ZM671.101 70.39L731.049 104.999V35.782L671.101 70.39ZM914.398 70.895V140.288L974.491 105.591L914.398 70.895ZM791.87 140.288H791.872V70.894L791.87 70.895L731.777 105.592L791.87 140.288ZM792.75 211.193L852.844 245.89V176.497L792.75 211.193ZM1036.34 352.506V421.894L1096.43 387.197L1036.34 352.506ZM244.316 246.394L304.408 281.089V211.699L244.316 246.394ZM61.41 211.193L121.5 245.89V176.497L61.41 211.193ZM792.458 141.297V210.687L852.55 175.992L792.458 141.297ZM365.965 106.096V175.488L426.058 140.792L365.965 106.096ZM610.135 387.197L670.227 421.892V352.502L610.135 387.197ZM244.316 387.197L304.408 421.892V352.502L244.316 387.197ZM122.37 387.197L182.469 421.893V352.501L122.37 387.197ZM426.934 352.502V421.892L487.025 387.197L426.934 352.502ZM792.459 422.904V492.294L852.55 457.599L792.459 422.904ZM1097.31 176.497V245.89L1157.4 211.193L1097.31 176.497ZM548.873 70.895V140.287L608.966 105.591L548.873 70.895ZM853.718 105.591L913.812 140.288V70.895L853.718 105.591ZM792.458 70.896V140.286L852.55 105.591L792.458 70.896ZM488.193 175.992L548.287 210.689V141.296L488.193 175.992ZM487.906 458.109V527.495L547.993 492.799L487.906 458.109ZM670.814 210.688L730.908 175.992L670.813 141.296L670.814 210.688ZM122.09 317.306V386.692L182.176 351.996L122.09 317.306ZM549.16 492.799L609.254 527.495V458.109L549.16 492.799ZM122.37 316.796L182.469 351.491V282.1L122.37 316.796ZM975.366 246.899V316.291L1035.46 281.595L975.366 246.899ZM975.659 105.591L1035.75 140.286V70.896L975.659 105.591ZM304.995 352.506V421.895L304.997 421.893L365.09 387.197L304.997 352.507L304.995 352.506ZM61.12 352.502V421.892L121.21 387.197L61.12 352.502ZM244.023 317.3V386.692L304.117 351.996L244.023 317.3ZM671.102 351.996L731.049 386.604V317.388L671.102 351.996ZM426.934 70.897V140.286L487.025 105.591L426.934 70.897ZM61.12 70.896V140.286L121.21 105.591L61.12 70.896ZM549.16 422.398L609.254 457.094V387.702L549.16 422.398ZM853.718 246.394L913.812 281.091V211.698L853.718 246.394ZM791.87 281.091L791.872 281.092V211.697L791.87 211.698L731.777 246.394L791.87 281.091ZM305.284 140.792L365.378 175.488V106.096L305.284 140.792ZM426.346 281.09V211.698L366.252 246.394L426.346 281.09ZM60.53 69.886V69.887V0.492004L0.430054 35.19L60.53 69.886ZM183.055 422.903V492.295L243.149 457.599L183.055 422.903ZM122.37 457.599L182.469 492.295V422.903L122.37 457.599ZM488.193 457.599L548.287 492.295V422.903L488.193 457.599ZM914.398 0.492981V69.886L974.491 35.189L914.398 0.492981ZM791.871 492.289L791.872 422.901L791.87 422.903L731.777 457.599L791.871 492.289ZM975.659 246.394L1035.75 281.089V211.699L975.659 246.394ZM549.16 140.792L609.254 175.488V106.096L549.16 140.792ZM487.906 387.702V457.094L547.999 422.398L487.906 387.702ZM609.841 387.702V457.094L669.934 422.398L609.841 387.702ZM427.225 422.398L487.319 457.094V387.702L427.225 422.398ZM244.023 106.096V175.488L304.117 140.792L244.023 106.096ZM183.343 140.792L243.436 175.488V106.096L183.343 140.792ZM548.873 422.903V492.295L608.967 457.599L548.873 422.903ZM61.41 140.792L121.5 175.488V106.096L61.41 140.792ZM305.284 422.398L365.378 457.094V387.702L305.284 422.398ZM122.09 176.497V245.89L182.181 211.193L122.09 176.497ZM1157.69 210.689L1157.69 210.69V141.296H1157.69L1097.59 175.992L1157.69 210.689ZM975.366 387.702V457.094L1035.46 422.398L975.366 387.702ZM244.316 457.599L304.408 492.294V422.904L244.316 457.599ZM853.718 457.599L913.812 492.295V422.903L853.718 457.599ZM914.398 211.698V281.091L974.491 246.394L914.398 211.698ZM975.66 457.599L1035.75 492.294V422.904L975.66 457.599ZM914.398 422.903V492.295L974.491 457.599L914.398 422.903ZM670.813 211.697V281.09L730.908 246.394L670.813 211.697ZM61.12 422.904V492.294L121.21 457.599L61.12 422.904ZM487.906 35.694V105.087L547.999 70.39L487.906 35.694ZM610.135 457.599L670.227 492.294V422.904L610.135 457.599ZM427.225 492.799L487.319 527.495V458.104L427.225 492.799ZM792.459 352.502V421.892L852.55 387.197L792.459 352.502ZM609.841 106.096V175.488L669.934 140.792L609.841 106.096ZM426.934 422.904V492.294L487.025 457.599L426.934 422.904ZM0.290039 176.585V245.802L60.24 211.193L0.290039 176.585ZM609.841 458.103V527.495L669.934 492.799L609.841 458.103ZM365.965 387.702V457.094L426.058 422.398L365.965 387.702ZM183.343 211.193L243.436 245.89V176.497L183.343 211.193ZM1157.69 351.491L1157.69 351.493V282.098L1157.69 282.1L1097.59 316.796L1157.69 351.491ZM914.686 70.39L974.779 105.087V35.694L914.686 70.39ZM975.66 387.197L1035.75 421.892V352.502L975.66 387.197ZM914.686 140.792L974.779 175.488V106.096L914.686 140.792ZM731.635 246.987V316.203L791.583 281.595L731.635 246.987ZM914.686 281.595L974.779 316.291V246.899L914.686 281.595ZM1036.63 492.799L1096.72 527.495V458.109L1036.63 492.799ZM1036.63 422.398L1096.72 457.094V387.702L1036.63 422.398ZM731.635 387.789V457.007L791.583 422.398L731.635 387.789ZM304.994 141.296L304.995 210.69L304.997 210.689L365.09 175.992L304.997 141.296H304.994ZM183.055 70.895V140.288L243.149 105.591L183.055 70.895ZM853.431 176.497V245.89L913.524 211.193L853.431 176.497ZM914.686 211.193L974.779 245.89V176.497L914.686 211.193ZM488.193 105.591L548.287 140.288V70.895L488.193 105.591ZM791.87 69.886L791.872 69.887V0.492004L791.87 0.492981L731.777 35.19L791.87 69.886ZM60.53 281.091V211.697V211.698L0.430054 246.394L60.53 281.091ZM244.316 316.796L304.408 351.491V282.101L244.316 316.796ZM1157.69 421.893L1157.69 421.895V352.506L1157.69 352.507L1097.59 387.197L1157.69 421.893ZM1036.63 140.792L1096.72 175.488V106.096L1036.63 140.792ZM914.398 282.1V351.491L974.491 316.796L914.398 282.1ZM791.87 351.492L791.872 351.493V282.099L791.87 282.1L731.777 316.796L791.87 351.492ZM610.135 175.992L670.226 210.687V141.297L610.135 175.992ZM426.346 210.689V141.296L366.252 175.992L426.346 210.689ZM853.718 316.796L913.812 351.491V282.1L853.718 316.796ZM1036.34 281.09L1096.43 246.394L1036.34 211.697V281.09ZM1097.31 246.899V316.291L1157.4 281.595L1097.31 246.899ZM791.87 421.893L791.872 421.895V352.5L791.87 352.501L731.777 387.197L791.87 421.893ZM0.290039 35.782V104.999L60.24 70.39L0.290039 35.782ZM427.225 211.193L487.319 245.889V176.497L427.225 211.193ZM122.37 175.992L182.468 210.689V141.296L122.37 175.992ZM610.135 105.591L670.226 140.286V70.896L610.135 105.591ZM365.965 176.497V245.89L426.058 211.193L365.965 176.497ZM792.75 422.398L852.844 457.094V387.702L792.75 422.398ZM975.366 176.497V245.89L1035.46 211.193L975.366 176.497ZM670.813 70.894V140.288L730.908 105.591L670.813 70.894ZM304.995 422.907V492.296L304.997 492.295L365.09 457.599L304.997 422.908L304.995 422.907ZM122.09 106.096V175.488L182.181 140.792L122.09 106.096ZM1157.69 492.295L1157.69 492.296V422.907L1157.69 422.908L1097.6 457.599L1157.69 492.295ZM1036.34 422.907V492.295L1096.43 457.599L1036.34 422.907ZM853.718 35.19L913.812 69.886V0.492981L853.718 35.19ZM122.09 387.702V457.094L182.181 422.398L122.09 387.702ZM487.906 176.497V245.889L547.999 211.193L487.906 176.497ZM183.343 422.398L243.436 457.094V387.702L183.343 422.398ZM1036.34 0.492981V69.886L1096.43 35.189L1036.34 0.492981ZM549.16 211.193L609.254 245.889V176.497L549.16 211.193ZM60.53 492.289V492.29V422.902V422.903L0.430054 457.599L60.53 492.289ZM244.023 387.702V457.094L304.117 422.398L244.023 387.702ZM426.346 492.295V422.907L366.258 457.599L426.346 492.295ZM244.023 458.104V527.495L304.117 492.799L244.023 458.104ZM792.458 211.699L792.459 281.089L852.55 246.394L792.458 211.699ZM1097.31 106.096V175.488L1157.4 140.792L1097.31 106.096ZM61.41 492.799L121.5 527.495V458.104L61.41 492.799ZM244.316 35.189L304.408 69.885V0.494019L244.316 35.189ZM61.41 422.398L121.5 457.094V387.702L61.41 422.398ZM670.813 422.902V492.289L730.908 457.599L670.813 422.902ZM548.873 0.492981V69.885L608.966 35.189L548.873 0.492981ZM1157.69 140.288H1157.69V70.894L1157.69 70.895L1097.59 105.591L1157.69 140.288ZM1036.34 351.491L1096.43 316.796L1036.34 282.1V351.491ZM122.37 105.591L182.468 140.288V70.895L122.37 105.591ZM731.635 106.184V175.4L791.583 140.792L731.635 106.184ZM792.75 140.792L852.844 175.488V106.096L792.75 140.792ZM426.934 282.101V351.491L487.025 316.796L426.934 282.101ZM853.431 106.096V175.488L913.524 140.792L853.431 106.096ZM853.431 35.694V105.08L913.518 70.39L853.431 35.694ZM244.023 246.899V316.291L304.117 281.595L244.023 246.899ZM427.225 281.595L487.319 316.291V246.899L427.225 281.595ZM244.023 176.497V245.89L304.117 211.193L244.023 176.497ZM975.659 35.189L1035.75 69.884V0.494019L975.659 35.189ZM975.365 35.694L975.366 105.087L1035.46 70.39L975.365 35.694ZM305.284 281.595L365.378 316.291V246.899L305.284 281.595ZM426.934 211.699V281.089L487.025 246.394L426.934 211.699ZM487.906 106.096V175.488L547.999 140.792L487.906 106.096ZM609.841 35.694V105.087L669.934 70.39L609.841 35.694ZM122.09 458.109V527.495L182.181 492.799L122.09 458.109ZM488.193 246.394L548.287 281.09V211.698L488.193 246.394ZM792.75 281.595L852.844 316.291V246.899L792.75 281.595ZM731.635 35.782V104.999L791.583 70.39L731.635 35.782ZM304.995 211.697V281.092L304.997 281.09L365.09 246.394L304.997 211.698L304.995 211.697ZM670.813 282.1V351.491L730.908 316.796L670.813 282.1ZM549.167 70.39L609.254 105.08V35.694L549.167 70.39ZM122.09 246.904V316.291L182.176 281.595L122.09 246.904ZM549.167 281.595L609.254 316.291V246.904L549.167 281.595ZM427.225 70.39L487.319 105.087V35.694L427.225 70.39ZM609.841 317.3V386.692L669.934 351.996L609.841 317.3ZM305.284 211.193L365.378 245.89V176.497L305.284 211.193ZM731.635 458.191V527.408L791.583 492.799L731.635 458.191ZM975.659 175.992L1035.75 210.687V141.297L975.659 175.992ZM183.343 70.39L243.436 105.087V35.694L183.343 70.39ZM305.284 70.39L365.378 105.087V35.694L305.284 70.39ZM0.290039 246.987V316.203L60.24 281.595L0.290039 246.987ZM60.53 421.893V421.895V352.5V352.501L0.430054 387.197L60.53 421.893ZM671.102 281.595L731.049 316.203V246.986L671.102 281.595ZM548.873 352.501V421.893L608.967 387.197L548.873 352.501ZM427.225 140.792L487.319 175.488V106.096L427.225 140.792ZM731.635 317.389V386.605L791.583 351.996L731.635 317.389ZM488.193 35.189L548.287 69.886V0.492981L488.193 35.189ZM365.965 35.694V105.087L426.058 70.39L365.965 35.694ZM1157.69 69.886L1157.69 69.887V0.492004L1157.69 0.492981L1097.59 35.189L1157.69 69.886ZM548.873 211.698V281.09L608.966 246.394L548.873 211.698ZM61.12 282.101V351.491L121.21 316.796L61.12 282.101ZM122.37 35.19L182.468 69.886V0.492981L122.37 35.19ZM1036.63 70.39L1096.72 105.087V35.694L1036.63 70.39ZM853.718 175.992L913.812 210.689V141.296L853.718 175.992ZM975.366 106.096V175.488L1035.46 140.792L975.366 106.096ZM914.398 141.296V210.689L974.491 175.992L914.398 141.296ZM426.346 351.491V282.1L366.252 316.796L426.346 351.491ZM183.055 211.698V281.091L243.149 246.394L183.055 211.698ZM122.37 246.394L182.469 281.091L182.468 211.698L122.37 246.394ZM304.994 0.492004V69.887L304.997 69.886L365.09 35.189L304.997 0.492981L304.994 0.492004ZM610.135 246.394L670.227 281.089L670.226 211.699L610.135 246.394ZM183.348 492.799L243.437 527.495L243.436 458.109L183.348 492.799ZM791.87 210.689L791.872 210.69V141.296H791.87L731.777 175.992L791.87 210.689ZM1097.31 387.702V457.094L1157.4 422.398L1097.31 387.702ZM61.12 211.699V281.089L121.21 246.394L61.12 211.699Z"
          fill="url(#paint0_linear_4586_5933)"></path>
    <path fill-rule="evenodd" clip-rule="evenodd"
          d="M731.049 0H731.635V34.597L791.564 0H792.769L852.844 34.685V0H853.431V34.679L913.5 0H914.704L974.779 34.685V0H975.365V34.685L1035.44 0H1036.65L1096.72 34.685V0H1097.31V34.685L1157.38 0H1158.59L1216 33.148V33.821L1158.28 0.494995V69.884L1216 36.557V37.231L1158.57 70.39L1216 103.55V104.223L1158.28 70.896V140.286L1216 106.958V107.633L1158.57 140.792L1216 173.951V174.625L1158.28 141.297V210.687L1216 177.36V178.034L1158.57 211.193L1216 244.352V245.026L1158.28 211.699V281.089L1216 247.762V248.436L1158.57 281.595L1216 314.754V315.428L1158.28 282.101V351.491L1216 318.163V318.837L1158.57 351.996L1216 385.155V385.829L1158.28 352.502V421.892L1216 388.565V389.239L1158.57 422.398L1216 455.556V456.231L1158.28 422.904V492.294L1216 458.966V459.641L1158.57 492.799L1216 525.958V526.633L1158.28 493.305V528H1157.69V493.303L1157.69 493.304L1097.59 528H1096.43L1036.34 493.303L1036.34 528H1035.75V493.311L975.665 528H974.491L914.398 493.304V528H913.812V493.304L853.718 528H852.557L792.459 493.305V528H791.872L791.871 493.303L731.777 528H730.908L670.813 493.303V528H670.227V493.305L610.128 528H608.967L548.873 493.304V528H548.287V493.303L488.199 528H487.025L426.934 493.305V528H426.347L426.346 493.303L366.252 528H365.09L304.997 493.304L304.995 493.303V528H304.408V493.311L244.322 528H243.149L183.055 493.304V528H182.469V493.304L122.37 528H121.21L61.12 493.305V528H60.53V493.303V493.304L0.430054 528H0V0H0.290039V34.597L60.22 0H61.4301L121.5 34.685V0H122.09V34.679L182.156 0H183.362L243.436 34.685V0H244.023V34.685L304.098 0H305.303L365.378 34.685V0H365.965V34.685L426.037 0H427.245L487.319 34.685V0H487.906V34.685L547.978 0H549.187L609.254 34.679V0H609.841V34.685L669.914 0H671.122L731.049 34.597V0ZM61.41 351.996L121.5 386.692V317.3L61.41 351.996ZM244.023 35.694V105.087L304.117 70.39L244.023 35.694ZM427.225 351.996L487.319 386.692V317.3L427.225 351.996ZM792.459 282.101V351.491L852.55 316.796L792.459 282.101ZM853.431 387.702V457.094L913.524 422.398L853.431 387.702ZM488.193 316.796L548.287 351.491V282.1L488.193 316.796ZM488.193 387.197L548.287 421.893V352.501L488.193 387.197ZM792.75 70.39L852.844 105.087V35.694L792.75 70.39ZM853.431 246.904V316.291L913.518 281.595L853.431 246.904ZM914.692 492.799L974.779 527.495V458.109L914.692 492.799ZM183.055 0.492981V69.886L243.149 35.189L183.055 0.492981ZM670.813 0.492981V69.886L730.908 35.189L670.813 0.492981ZM244.316 175.992L304.408 210.687V141.297L244.316 175.992ZM304.995 282.099V351.493L304.997 351.491L365.09 316.796L304.997 282.1L304.995 282.099ZM426.346 140.288V70.894L366.252 105.591L426.346 140.288ZM610.135 316.796L670.227 351.491V282.101L610.135 316.796ZM792.75 492.799L852.844 527.495V458.104L792.75 492.799ZM792.458 0.494995V69.885L852.55 35.19L792.458 0.494995ZM244.316 105.591L304.408 140.286V70.896L244.316 105.591ZM731.635 176.585V245.802L791.583 211.193L731.635 176.585ZM853.431 458.109V527.495L913.525 492.799L853.431 458.109ZM853.431 317.306V386.692L913.518 351.996L853.431 317.306ZM792.75 351.996L852.844 386.692V317.3L792.75 351.996ZM305.284 492.799L365.378 527.495V458.109L305.284 492.799ZM549.167 351.996L609.254 386.692V317.306L549.167 351.996ZM60.53 351.492V282.099V282.1L0.430054 316.796L60.53 351.492ZM1097.31 458.109V527.495L1157.4 492.799L1097.31 458.109ZM1036.63 211.193L1096.72 245.89V176.497L1036.63 211.193ZM975.366 458.104V527.495L1035.46 492.799L975.366 458.104ZM548.873 282.1V351.491L608.967 316.796L548.873 282.1ZM183.055 352.501V421.893L243.149 387.197L183.055 352.501ZM487.906 317.3V386.692L547.999 351.996L487.906 317.3ZM1036.34 141.296V210.689L1096.43 175.992L1036.34 141.296ZM1036.63 351.996L1096.72 386.692V317.3L1036.63 351.996ZM426.934 141.297V210.687L487.025 175.992L426.934 141.297ZM1157.69 281.09L1157.69 281.092V211.696L1157.69 211.698L1097.59 246.394L1157.69 281.09ZM365.965 458.109V527.495L426.058 492.799L365.965 458.109ZM61.12 141.297V210.687L121.21 175.992L61.12 141.297ZM0.290039 106.184V175.4L60.24 140.792L0.290039 106.184ZM609.841 176.497V245.889L669.934 211.193L609.841 176.497ZM975.66 316.796L1035.75 351.491V282.101L975.66 316.796ZM1097.31 317.3V386.692L1157.4 351.996L1097.31 317.3ZM122.09 35.694V105.08L182.175 70.39L122.09 35.694ZM61.41 70.39L121.5 105.087V35.694L61.41 70.39ZM60.53 210.689V210.69V141.296L0.430054 175.992L60.53 210.689ZM671.102 140.792L731.049 175.4V106.184L671.102 140.792ZM0.290039 458.191V527.408L60.24 492.799L0.290039 458.191ZM548.873 141.296V210.688L608.966 175.992L548.873 141.296ZM426.346 69.886V0.492981L366.252 35.189L426.346 69.886ZM61.41 281.595L121.5 316.291V246.899L61.41 281.595ZM671.102 492.799L731.049 527.407V458.191L671.102 492.799ZM610.135 35.189L670.226 69.885V0.494019L610.135 35.189ZM60.53 140.288V70.894L0.430054 105.592L60.53 140.288ZM609.841 246.899V316.291L669.934 281.595L609.841 246.899ZM305.284 351.996L365.378 386.692V317.3L305.284 351.996ZM487.906 246.899V316.291L547.999 281.595L487.906 246.899ZM365.965 246.899V316.291L426.058 281.595L365.965 246.899ZM426.346 421.893V352.506L366.252 387.197L426.346 421.893ZM975.366 317.3V386.692L1035.46 351.996L975.366 317.3ZM853.718 387.197L913.812 421.893V352.501L853.718 387.197ZM1097.31 35.694V105.087L1157.4 70.39L1097.31 35.694ZM914.686 422.398L974.779 457.094V387.702L914.686 422.398ZM365.965 317.3V386.692L426.058 351.996L365.965 317.3ZM304.994 70.894V140.288H304.997L365.09 105.591L304.997 70.895L304.994 70.894ZM183.055 141.296V210.689L243.149 175.992L183.055 141.296ZM183.055 282.1V351.491L243.149 316.796L183.055 282.1ZM914.398 352.501V421.893L974.491 387.197L914.398 352.501ZM914.686 351.996L974.779 386.692V317.3L914.686 351.996ZM1036.63 281.595L1096.72 316.291V246.899L1036.63 281.595ZM1036.34 70.894V140.288L1096.43 105.591L1036.34 70.894ZM183.343 281.595L243.436 316.291V246.899L183.343 281.595ZM0.290039 387.789V457.007L60.24 422.398L0.290039 387.789ZM671.102 211.193L731.049 245.802V176.585L671.102 211.193ZM426.934 0.494995V69.884L487.025 35.189L426.934 0.494995ZM0.290039 317.389V386.605L60.24 351.996L0.290039 317.389ZM671.102 422.398L731.049 457.006V387.789L671.102 422.398ZM670.813 352.5V421.894L730.908 387.197L670.813 352.5ZM61.12 0.494995V69.885L121.21 35.19L61.12 0.494995ZM183.343 351.996L243.436 386.692V317.3L183.343 351.996ZM671.101 70.39L731.049 104.999V35.782L671.101 70.39ZM914.398 70.895V140.288L974.491 105.591L914.398 70.895ZM791.87 140.288H791.872V70.894L791.87 70.895L731.777 105.592L791.87 140.288ZM792.75 211.193L852.844 245.89V176.497L792.75 211.193ZM1036.34 352.506V421.894L1096.43 387.197L1036.34 352.506ZM244.316 246.394L304.408 281.089V211.699L244.316 246.394ZM61.41 211.193L121.5 245.89V176.497L61.41 211.193ZM792.458 141.297V210.687L852.55 175.992L792.458 141.297ZM365.965 106.096V175.488L426.058 140.792L365.965 106.096ZM610.135 387.197L670.227 421.892V352.502L610.135 387.197ZM244.316 387.197L304.408 421.892V352.502L244.316 387.197ZM122.37 387.197L182.469 421.893V352.501L122.37 387.197ZM426.934 352.502V421.892L487.025 387.197L426.934 352.502ZM792.459 422.904V492.294L852.55 457.599L792.459 422.904ZM1097.31 176.497V245.89L1157.4 211.193L1097.31 176.497ZM548.873 70.895V140.287L608.966 105.591L548.873 70.895ZM853.718 105.591L913.812 140.288V70.895L853.718 105.591ZM792.458 70.896V140.286L852.55 105.591L792.458 70.896ZM488.193 175.992L548.287 210.689V141.296L488.193 175.992ZM487.906 458.109V527.495L547.993 492.799L487.906 458.109ZM670.814 210.688L730.908 175.992L670.813 141.296L670.814 210.688ZM122.09 317.306V386.692L182.176 351.996L122.09 317.306ZM549.16 492.799L609.254 527.495V458.109L549.16 492.799ZM122.37 316.796L182.469 351.491V282.1L122.37 316.796ZM975.366 246.899V316.291L1035.46 281.595L975.366 246.899ZM975.659 105.591L1035.75 140.286V70.896L975.659 105.591ZM304.995 352.506V421.895L304.997 421.893L365.09 387.197L304.997 352.507L304.995 352.506ZM61.12 352.502V421.892L121.21 387.197L61.12 352.502ZM244.023 317.3V386.692L304.117 351.996L244.023 317.3ZM671.102 351.996L731.049 386.604V317.388L671.102 351.996ZM426.934 70.897V140.286L487.025 105.591L426.934 70.897ZM61.12 70.896V140.286L121.21 105.591L61.12 70.896ZM549.16 422.398L609.254 457.094V387.702L549.16 422.398ZM853.718 246.394L913.812 281.091V211.698L853.718 246.394ZM791.87 281.091L791.872 281.092V211.697L791.87 211.698L731.777 246.394L791.87 281.091ZM305.284 140.792L365.378 175.488V106.096L305.284 140.792ZM426.346 281.09V211.698L366.252 246.394L426.346 281.09ZM60.53 69.886V69.887V0.492004L0.430054 35.19L60.53 69.886ZM183.055 422.903V492.295L243.149 457.599L183.055 422.903ZM122.37 457.599L182.469 492.295V422.903L122.37 457.599ZM488.193 457.599L548.287 492.295V422.903L488.193 457.599ZM914.398 0.492981V69.886L974.491 35.189L914.398 0.492981ZM791.871 492.289L791.872 422.901L791.87 422.903L731.777 457.599L791.871 492.289ZM975.659 246.394L1035.75 281.089V211.699L975.659 246.394ZM549.16 140.792L609.254 175.488V106.096L549.16 140.792ZM487.906 387.702V457.094L547.999 422.398L487.906 387.702ZM609.841 387.702V457.094L669.934 422.398L609.841 387.702ZM427.225 422.398L487.319 457.094V387.702L427.225 422.398ZM244.023 106.096V175.488L304.117 140.792L244.023 106.096ZM183.343 140.792L243.436 175.488V106.096L183.343 140.792ZM548.873 422.903V492.295L608.967 457.599L548.873 422.903ZM61.41 140.792L121.5 175.488V106.096L61.41 140.792ZM305.284 422.398L365.378 457.094V387.702L305.284 422.398ZM122.09 176.497V245.89L182.181 211.193L122.09 176.497ZM1157.69 210.689L1157.69 210.69V141.296H1157.69L1097.59 175.992L1157.69 210.689ZM975.366 387.702V457.094L1035.46 422.398L975.366 387.702ZM244.316 457.599L304.408 492.294V422.904L244.316 457.599ZM853.718 457.599L913.812 492.295V422.903L853.718 457.599ZM914.398 211.698V281.091L974.491 246.394L914.398 211.698ZM975.66 457.599L1035.75 492.294V422.904L975.66 457.599ZM914.398 422.903V492.295L974.491 457.599L914.398 422.903ZM670.813 211.697V281.09L730.908 246.394L670.813 211.697ZM61.12 422.904V492.294L121.21 457.599L61.12 422.904ZM487.906 35.694V105.087L547.999 70.39L487.906 35.694ZM610.135 457.599L670.227 492.294V422.904L610.135 457.599ZM427.225 492.799L487.319 527.495V458.104L427.225 492.799ZM792.459 352.502V421.892L852.55 387.197L792.459 352.502ZM609.841 106.096V175.488L669.934 140.792L609.841 106.096ZM426.934 422.904V492.294L487.025 457.599L426.934 422.904ZM0.290039 176.585V245.802L60.24 211.193L0.290039 176.585ZM609.841 458.103V527.495L669.934 492.799L609.841 458.103ZM365.965 387.702V457.094L426.058 422.398L365.965 387.702ZM183.343 211.193L243.436 245.89V176.497L183.343 211.193ZM1157.69 351.491L1157.69 351.493V282.098L1157.69 282.1L1097.59 316.796L1157.69 351.491ZM914.686 70.39L974.779 105.087V35.694L914.686 70.39ZM975.66 387.197L1035.75 421.892V352.502L975.66 387.197ZM914.686 140.792L974.779 175.488V106.096L914.686 140.792ZM731.635 246.987V316.203L791.583 281.595L731.635 246.987ZM914.686 281.595L974.779 316.291V246.899L914.686 281.595ZM1036.63 492.799L1096.72 527.495V458.109L1036.63 492.799ZM1036.63 422.398L1096.72 457.094V387.702L1036.63 422.398ZM731.635 387.789V457.007L791.583 422.398L731.635 387.789ZM304.994 141.296L304.995 210.69L304.997 210.689L365.09 175.992L304.997 141.296H304.994ZM183.055 70.895V140.288L243.149 105.591L183.055 70.895ZM853.431 176.497V245.89L913.524 211.193L853.431 176.497ZM914.686 211.193L974.779 245.89V176.497L914.686 211.193ZM488.193 105.591L548.287 140.288V70.895L488.193 105.591ZM791.87 69.886L791.872 69.887V0.492004L791.87 0.492981L731.777 35.19L791.87 69.886ZM60.53 281.091V211.697V211.698L0.430054 246.394L60.53 281.091ZM244.316 316.796L304.408 351.491V282.101L244.316 316.796ZM1157.69 421.893L1157.69 421.895V352.506L1157.69 352.507L1097.59 387.197L1157.69 421.893ZM1036.63 140.792L1096.72 175.488V106.096L1036.63 140.792ZM914.398 282.1V351.491L974.491 316.796L914.398 282.1ZM791.87 351.492L791.872 351.493V282.099L791.87 282.1L731.777 316.796L791.87 351.492ZM610.135 175.992L670.226 210.687V141.297L610.135 175.992ZM426.346 210.689V141.296L366.252 175.992L426.346 210.689ZM853.718 316.796L913.812 351.491V282.1L853.718 316.796ZM1036.34 281.09L1096.43 246.394L1036.34 211.697V281.09ZM1097.31 246.899V316.291L1157.4 281.595L1097.31 246.899ZM791.87 421.893L791.872 421.895V352.5L791.87 352.501L731.777 387.197L791.87 421.893ZM0.290039 35.782V104.999L60.24 70.39L0.290039 35.782ZM427.225 211.193L487.319 245.889V176.497L427.225 211.193ZM122.37 175.992L182.468 210.689V141.296L122.37 175.992ZM610.135 105.591L670.226 140.286V70.896L610.135 105.591ZM365.965 176.497V245.89L426.058 211.193L365.965 176.497ZM792.75 422.398L852.844 457.094V387.702L792.75 422.398ZM975.366 176.497V245.89L1035.46 211.193L975.366 176.497ZM670.813 70.894V140.288L730.908 105.591L670.813 70.894ZM304.995 422.907V492.296L304.997 492.295L365.09 457.599L304.997 422.908L304.995 422.907ZM122.09 106.096V175.488L182.181 140.792L122.09 106.096ZM1157.69 492.295L1157.69 492.296V422.907L1157.69 422.908L1097.6 457.599L1157.69 492.295ZM1036.34 422.907V492.295L1096.43 457.599L1036.34 422.907ZM853.718 35.19L913.812 69.886V0.492981L853.718 35.19ZM122.09 387.702V457.094L182.181 422.398L122.09 387.702ZM487.906 176.497V245.889L547.999 211.193L487.906 176.497ZM183.343 422.398L243.436 457.094V387.702L183.343 422.398ZM1036.34 0.492981V69.886L1096.43 35.189L1036.34 0.492981ZM549.16 211.193L609.254 245.889V176.497L549.16 211.193ZM60.53 492.289V492.29V422.902V422.903L0.430054 457.599L60.53 492.289ZM244.023 387.702V457.094L304.117 422.398L244.023 387.702ZM426.346 492.295V422.907L366.258 457.599L426.346 492.295ZM244.023 458.104V527.495L304.117 492.799L244.023 458.104ZM792.458 211.699L792.459 281.089L852.55 246.394L792.458 211.699ZM1097.31 106.096V175.488L1157.4 140.792L1097.31 106.096ZM61.41 492.799L121.5 527.495V458.104L61.41 492.799ZM244.316 35.189L304.408 69.885V0.494019L244.316 35.189ZM61.41 422.398L121.5 457.094V387.702L61.41 422.398ZM670.813 422.902V492.289L730.908 457.599L670.813 422.902ZM548.873 0.492981V69.885L608.966 35.189L548.873 0.492981ZM1157.69 140.288H1157.69V70.894L1157.69 70.895L1097.59 105.591L1157.69 140.288ZM1036.34 351.491L1096.43 316.796L1036.34 282.1V351.491ZM122.37 105.591L182.468 140.288V70.895L122.37 105.591ZM731.635 106.184V175.4L791.583 140.792L731.635 106.184ZM792.75 140.792L852.844 175.488V106.096L792.75 140.792ZM426.934 282.101V351.491L487.025 316.796L426.934 282.101ZM853.431 106.096V175.488L913.524 140.792L853.431 106.096ZM853.431 35.694V105.08L913.518 70.39L853.431 35.694ZM244.023 246.899V316.291L304.117 281.595L244.023 246.899ZM427.225 281.595L487.319 316.291V246.899L427.225 281.595ZM244.023 176.497V245.89L304.117 211.193L244.023 176.497ZM975.659 35.189L1035.75 69.884V0.494019L975.659 35.189ZM975.365 35.694L975.366 105.087L1035.46 70.39L975.365 35.694ZM305.284 281.595L365.378 316.291V246.899L305.284 281.595ZM426.934 211.699V281.089L487.025 246.394L426.934 211.699ZM487.906 106.096V175.488L547.999 140.792L487.906 106.096ZM609.841 35.694V105.087L669.934 70.39L609.841 35.694ZM122.09 458.109V527.495L182.181 492.799L122.09 458.109ZM488.193 246.394L548.287 281.09V211.698L488.193 246.394ZM792.75 281.595L852.844 316.291V246.899L792.75 281.595ZM731.635 35.782V104.999L791.583 70.39L731.635 35.782ZM304.995 211.697V281.092L304.997 281.09L365.09 246.394L304.997 211.698L304.995 211.697ZM670.813 282.1V351.491L730.908 316.796L670.813 282.1ZM549.167 70.39L609.254 105.08V35.694L549.167 70.39ZM122.09 246.904V316.291L182.176 281.595L122.09 246.904ZM549.167 281.595L609.254 316.291V246.904L549.167 281.595ZM427.225 70.39L487.319 105.087V35.694L427.225 70.39ZM609.841 317.3V386.692L669.934 351.996L609.841 317.3ZM305.284 211.193L365.378 245.89V176.497L305.284 211.193ZM731.635 458.191V527.408L791.583 492.799L731.635 458.191ZM975.659 175.992L1035.75 210.687V141.297L975.659 175.992ZM183.343 70.39L243.436 105.087V35.694L183.343 70.39ZM305.284 70.39L365.378 105.087V35.694L305.284 70.39ZM0.290039 246.987V316.203L60.24 281.595L0.290039 246.987ZM60.53 421.893V421.895V352.5V352.501L0.430054 387.197L60.53 421.893ZM671.102 281.595L731.049 316.203V246.986L671.102 281.595ZM548.873 352.501V421.893L608.967 387.197L548.873 352.501ZM427.225 140.792L487.319 175.488V106.096L427.225 140.792ZM731.635 317.389V386.605L791.583 351.996L731.635 317.389ZM488.193 35.189L548.287 69.886V0.492981L488.193 35.189ZM365.965 35.694V105.087L426.058 70.39L365.965 35.694ZM1157.69 69.886L1157.69 69.887V0.492004L1157.69 0.492981L1097.59 35.189L1157.69 69.886ZM548.873 211.698V281.09L608.966 246.394L548.873 211.698ZM61.12 282.101V351.491L121.21 316.796L61.12 282.101ZM122.37 35.19L182.468 69.886V0.492981L122.37 35.19ZM1036.63 70.39L1096.72 105.087V35.694L1036.63 70.39ZM853.718 175.992L913.812 210.689V141.296L853.718 175.992ZM975.366 106.096V175.488L1035.46 140.792L975.366 106.096ZM914.398 141.296V210.689L974.491 175.992L914.398 141.296ZM426.346 351.491V282.1L366.252 316.796L426.346 351.491ZM183.055 211.698V281.091L243.149 246.394L183.055 211.698ZM122.37 246.394L182.469 281.091L182.468 211.698L122.37 246.394ZM304.994 0.492004V69.887L304.997 69.886L365.09 35.189L304.997 0.492981L304.994 0.492004ZM610.135 246.394L670.227 281.089L670.226 211.699L610.135 246.394ZM183.348 492.799L243.437 527.495L243.436 458.109L183.348 492.799ZM791.87 210.689L791.872 210.69V141.296H791.87L731.777 175.992L791.87 210.689ZM1097.31 387.702V457.094L1157.4 422.398L1097.31 387.702ZM61.12 211.699V281.089L121.21 246.394L61.12 211.699Z"
          fill="url(#paint1_linear_4586_5933)" fill-opacity="0.9"></path>
  </g>
  <defs>
    <linearGradient id="paint0_linear_4586_5933" x1="0" y1="264" x2="1326"
                    y2="264" gradientUnits="userSpaceOnUse">
      <stop stop-opacity="0"></stop>
      <stop offset="0.4" stop-color="#79808E" stop-opacity="0.6"></stop>
      <stop offset="0.744344" stop-color="#98A2B3" stop-opacity="0.9"></stop>
      <stop offset="1" stop-opacity="0"></stop>
    </linearGradient>
    <linearGradient id="paint1_linear_4586_5933" x1="608" y1="0" x2="608"
                    y2="528" gradientUnits="userSpaceOnUse">
      <stop></stop>
      <stop offset="0.145833" stop-opacity="0.25"></stop>
      <stop offset="0.498106" stop-opacity="0"></stop>
      <stop offset="0.945076" stop-opacity="0.5"></stop>
      <stop offset="1"></stop>
    </linearGradient>
  </defs>
</svg>
