<svg width="586" height="337" viewBox="0 0 586 337" fill="none" xmlns="http://www.w3.org/2000/svg" aria-hidden="true">
<path fill-rule="evenodd" clip-rule="evenodd" d="M5.48597 148.959C42.3382 89.9755 136.243 0.0117188 293 0.0117188C449.757 0.0117188 543.662 89.9755 580.514 148.959C587.829 160.667 587.829 175.357 580.514 187.064C543.662 246.048 449.757 336.012 293 336.012C136.243 336.012 42.3381 246.048 5.48596 187.064C-1.82866 175.357 -1.82865 160.667 5.48597 148.959ZM304.96 288.014C307.791 288.014 310.086 285.711 310.086 282.871V211.471L360.402 261.959C362.403 263.968 365.649 263.968 367.65 261.959L385.771 243.777C387.773 241.768 387.773 238.512 385.771 236.503L335.454 186.015H406.612C409.443 186.015 411.738 183.712 411.738 180.872V155.158C411.738 152.317 409.443 150.015 406.612 150.015H310.086V53.1568C310.086 50.3165 307.791 48.0139 304.96 48.0139L279.333 48.0139C276.503 48.0139 274.208 50.3165 274.208 53.1568V124.56L223.891 74.0709C221.889 72.0625 218.644 72.0625 216.643 74.0709L198.522 92.2536C196.52 94.262 196.52 97.5183 198.522 99.5267L248.838 150.015H177.68C174.849 150.015 172.554 152.317 172.554 155.158V180.872C172.554 183.712 174.849 186.015 177.68 186.015H248.838L198.522 236.503C196.52 238.511 196.52 241.767 198.522 243.776L216.643 261.958C218.645 263.967 221.89 263.967 223.891 261.958L274.208 211.47V282.871C274.208 285.711 276.503 288.014 279.334 288.014H304.96ZM380.295 79.6002C369.514 68.7823 352.034 68.7823 341.253 79.6002L340.711 80.1438C329.93 90.9617 329.93 108.501 340.711 119.319C351.492 130.137 368.972 130.137 379.753 119.319L380.295 118.775C391.076 107.957 391.076 90.4181 380.295 79.6002Z" fill="#F84E35"/>
</svg>
