<svg width="479" height="467" viewBox="0 0 479 467" fill="none" aria-hidden="true"
     xmlns="http://www.w3.org/2000/svg">
  <path fill-rule="evenodd" clip-rule="evenodd"
        d="M265.059 466.459C270.701 466.459 275.274 461.989 275.274 456.476V317.88L375.557 415.883C379.546 419.782 386.014 419.782 390.003 415.883L426.119 380.588C430.108 376.69 430.108 370.369 426.119 366.47L325.835 268.466H467.657C473.298 268.466 477.872 263.996 477.872 258.483V208.568C477.872 203.055 473.298 198.585 467.657 198.585H275.274V10.5722C275.274 5.05874 270.701 0.589233 265.059 0.589233L213.984 0.589242C208.342 0.589242 203.769 5.05874 203.769 10.5722V149.174L103.485 51.169C99.4953 47.2704 93.0275 47.2704 89.0383 51.169L52.9225 86.4639C48.9333 90.3625 48.9333 96.6833 52.9225 100.582L153.205 198.585H11.3831C5.74141 198.585 1.16797 203.055 1.16797 208.568V258.483C1.16797 263.996 5.74144 268.466 11.3831 268.466H153.205L52.9231 366.469C48.9339 370.367 48.9339 376.688 52.9231 380.587L89.0389 415.882C93.0281 419.78 99.4959 419.78 103.485 415.882L203.769 317.877V456.476C203.769 461.989 208.342 466.459 213.984 466.459H265.059ZM415.204 61.9021C393.717 40.9032 358.879 40.9032 337.392 61.9021L336.312 62.9573C314.825 83.9562 314.825 118.002 336.312 139.001C357.799 160 392.637 160 414.124 139.001L415.204 137.946C436.691 116.947 436.691 82.901 415.204 61.9021Z"
        fill="#F3E9E7"/>
</svg>
