<svg xmlns="http://www.w3.org/2000/svg" width="74" height="18" viewBox="0 0 74 18" fill="none" aria-hidden="true">
  <path fill-rule="evenodd" clip-rule="evenodd" d="M68.356 13.4311C64.0886 13.4311 62.7154 11.875 62.6582 10.2952C62.6582 10.2357 62.7059 10.1881 62.7631 10.1881H65.0351C65.0899 10.1881 65.1304 10.2309 65.1376 10.2857C65.2234 11.0328 66.3153 11.5848 68.4657 11.5848C70.616 11.5848 71.2859 11.1922 71.2859 10.5569C71.2859 9.84787 70.8449 9.6147 68.7732 9.39342L66.8374 9.16025C63.8955 8.81763 62.7679 7.96108 62.7679 6.4074C62.7679 4.76806 64.4224 3.5332 68.0151 3.5332C71.8247 3.5332 73.341 4.99409 73.4077 6.5454C73.4101 6.60488 73.36 6.65247 73.3028 6.65247H71.0571C71.0022 6.65247 70.9593 6.60964 70.9546 6.55492C70.8807 5.80782 69.9509 5.37954 67.8697 5.37954C65.6382 5.37954 65.1614 5.68647 65.1614 6.28606C65.1614 6.88564 65.6525 7.09264 68.0175 7.38767L70.0892 7.63274C72.59 7.8897 73.7176 8.79622 73.7176 10.3975C73.7176 12.3057 72.0011 13.4311 68.3608 13.4311H68.356ZM50.7598 13.1807V3.78242C50.7598 3.72532 50.8074 3.67773 50.8647 3.67773H60.0598C60.117 3.67773 60.1647 3.72532 60.1647 3.78242V5.50742C60.1647 5.56452 60.117 5.61211 60.0598 5.61211H53.1462C53.0889 5.61211 53.0413 5.65969 53.0413 5.7168V7.4061C53.0413 7.4632 53.0889 7.51079 53.1462 7.51079H59.8524C59.9096 7.51079 59.9573 7.55838 59.9573 7.61548V9.32858C59.9573 9.38568 59.9096 9.43327 59.8524 9.43327H53.1462C53.0889 9.43327 53.0413 9.48085 53.0413 9.53795V11.2511C53.0413 11.3082 53.0889 11.3557 53.1462 11.3557H60.1456C60.2028 11.3557 60.2505 11.4033 60.2505 11.4604V13.1854C60.2505 13.2425 60.2028 13.2901 60.1456 13.2901H50.8647C50.8074 13.2901 50.7598 13.2425 50.7598 13.1854V13.1807ZM41.3697 5.7049V13.1807H41.3673C41.3673 13.2378 41.415 13.2854 41.4722 13.2854H43.6297C43.6869 13.2854 43.7346 13.2378 43.7346 13.1807V5.7049C43.7346 5.6478 43.7823 5.60021 43.8395 5.60021H47.8494C47.9066 5.60021 47.9543 5.55262 47.9543 5.49552V3.78242C47.9543 3.72532 47.9066 3.67773 47.8494 3.67773H37.2572C37.2 3.67773 37.1523 3.72532 37.1523 3.78242V5.49552C37.1523 5.55262 37.2 5.60021 37.2572 5.60021H41.2648C41.322 5.60021 41.3697 5.6478 41.3697 5.7049Z" fill="white"/>
  <path fill-rule="evenodd" clip-rule="evenodd" d="M0.280169 7.55597C2.16222 4.56997 6.95797 0.015625 14.9636 0.015625C22.9691 0.015625 27.7649 4.56997 29.6469 7.55597C30.0205 8.14864 30.0205 8.89232 29.6469 9.485C27.7649 12.471 22.9691 17.0253 14.9636 17.0253C6.95797 17.0253 2.16222 12.471 0.280169 9.485C-0.0933898 8.89232 -0.0933895 8.14864 0.280169 7.55597ZM15.5744 14.5955C15.7189 14.5955 15.8361 14.4789 15.8361 14.3351V10.7206L18.4058 13.2765C18.508 13.3782 18.6737 13.3782 18.7759 13.2765L19.7014 12.356C19.8036 12.2543 19.8036 12.0895 19.7014 11.9878L17.1317 9.43187H20.7658C20.9103 9.43187 21.0275 9.3153 21.0275 9.17152V7.86975C21.0275 7.72596 20.9103 7.6094 20.7658 7.6094H15.8361V2.70605C15.8361 2.56226 15.7189 2.4457 15.5744 2.4457L14.2656 2.4457C14.121 2.4457 14.0039 2.56226 14.0039 2.70605V6.32077L11.4341 3.76481C11.3319 3.66313 11.1662 3.66313 11.064 3.76481L10.1385 4.68529C10.0363 4.78697 10.0363 4.95181 10.1385 5.05349L12.7082 7.6094H9.07412C8.92956 7.6094 8.81237 7.72596 8.81237 7.86975V9.17151C8.81237 9.3153 8.92956 9.43187 9.07412 9.43187H12.7082L10.1386 11.9878C10.0363 12.0894 10.0363 12.2543 10.1386 12.356L11.064 13.2765C11.1662 13.3781 11.3319 13.3781 11.4342 13.2765L14.0039 10.7205V14.3351C14.0039 14.4789 14.121 14.5955 14.2656 14.5955H15.5744ZM19.4217 4.04473C18.8711 3.49708 17.9784 3.49708 17.4278 4.04473L17.4002 4.07225C16.8496 4.61989 16.8496 5.50781 17.4002 6.05546C17.9508 6.6031 18.8435 6.6031 19.394 6.05546L19.4217 6.02794C19.9723 5.48029 19.9723 4.59237 19.4217 4.04473Z" fill="white"/>
</svg>
