<svg width="1379" height="374" viewBox="0 0 1379 374" fill="none" xmlns="http://www.w3.org/2000/svg" aria-hidden="true">
    <path fill-rule="evenodd" clip-rule="evenodd"
          d="M1093.25 4.7868C1000.71 18.2312 949.453 66.7558 962.363 128.701C973.694 183.071 1018.38 203.337 1164.35 220.286C1270.27 232.585 1289.86 241.525 1281.72 273.838C1269.16 323.656 1065.14 312.313 1051.83 261.056L1050.37 255.439C1049.92 253.718 1048.38 252.507 1046.61 252.479L960.761 251.127C958.394 251.09 956.528 253.134 956.772 255.495L957.85 265.877C965.466 339.392 1047.34 377.55 1189.29 373.74C1321.75 370.186 1383.2 327.565 1374.09 245.574C1367.33 184.819 1330.02 166.396 1176.46 147.977C1078.32 136.206 1057.6 130.079 1052.95 111.465C1045.85 83.0639 1073.26 71.8104 1150.02 71.6171C1222.59 71.435 1261.91 84.3483 1268.98 110.693L1270.28 115.575C1270.74 117.281 1272.27 118.477 1274.03 118.505L1359.79 119.856C1362.18 119.894 1364.05 117.81 1363.77 115.43L1362.64 105.95C1353.64 30.1793 1232.24 -15.4066 1093.25 4.7868ZM0.939896 75.6198C0.939896 77.806 2.70666 79.5782 4.88607 79.5782H155.81C157.989 79.5782 159.756 81.3504 159.756 83.5366V365.209C159.756 367.394 161.523 369.166 163.702 369.166H247.331C249.51 369.166 251.277 367.394 251.277 365.209V83.5366C251.277 81.3504 253.044 79.5782 255.223 79.5782H406.147C408.326 79.5782 410.092 77.806 410.092 75.6198V11.1396C410.092 8.95347 408.326 7.18126 406.147 7.18126H4.88607C2.70666 7.18126 0.939896 8.95347 0.939896 11.1396V75.6198ZM510.56 365.209C510.56 367.394 512.326 369.166 514.505 369.166H867.315C869.494 369.166 871.26 367.394 871.26 365.209V300.728C871.26 298.543 869.494 296.769 867.315 296.769H600.644C598.462 296.769 596.696 294.997 596.696 292.812V228.361C596.696 226.182 598.451 224.414 600.622 224.402L855.303 223.052C857.443 223.041 859.184 221.322 859.228 219.177L860.565 156.047C860.612 153.837 858.843 152.016 856.639 152.005L601.886 150.655C599.746 150.644 598.007 148.925 597.96 146.781L596.627 83.6206C596.58 81.4021 598.36 79.5782 600.572 79.5782H861.931C864.11 79.5782 865.876 77.806 865.876 75.6198V11.1396C865.876 8.95347 864.11 7.18126 861.931 7.18126H514.505C512.326 7.18126 510.56 8.95347 510.56 11.1396V365.209Z"
          fill="white"/>
</svg>
