<svg xmlns="http://www.w3.org/2000/svg" width="443" height="510" viewBox="0 0 443 510" fill="none"><path d="M221 255.432L220.898 255.5L220.898 255.381L-5.58562e-06 127.784L-5.58264e-06 127.716L220.898 0.119243L220.898 9.65575e-06L221 0.068143L221.102 9.66468e-06L221.102 0.119243L442 127.716L442 127.784L221.102 255.381L221.102 255.5L221 255.432Z" fill="url(#paint0_linear_5005_6724)"></path><path d="M-1.11697e-05 381.534L-1.11683e-05 381.5L-1.11668e-05 381.466L0 126L221.102 253.716L221.102 253.75L221.102 253.784L221.102 509.25L-1.11697e-05 381.534Z" fill="url(#paint1_linear_5005_6724)"></path><path d="M442.102 381.534L442.102 381.5L442.102 381.466L442.102 126L220.999 253.716L220.999 253.75L220.999 253.784L220.999 509.25L442.102 381.534Z" fill="url(#paint2_linear_5005_6724)"></path><defs><linearGradient id="paint0_linear_5005_6724" x1="221" y1="31" x2="220.582" y2="255.999" gradientUnits="userSpaceOnUse"><stop></stop><stop offset="1" stop-color="#E19404"></stop></linearGradient><linearGradient id="paint1_linear_5005_6724" x1="-4.0293e-06" y1="261.054" x2="211.764" y2="247.017" gradientUnits="userSpaceOnUse"><stop></stop><stop offset="1" stop-color="#7D5202"></stop></linearGradient><linearGradient id="paint2_linear_5005_6724" x1="442.102" y1="260.986" x2="230.338" y2="246.949" gradientUnits="userSpaceOnUse"><stop></stop><stop offset="1" stop-color="#AF7303"></stop></linearGradient></defs></svg>