<svg xmlns="http://www.w3.org/2000/svg" width="442" height="511" viewBox="0 0 442 511" fill="none"><g clip-path="url(#clip0_4002_20379)"><path d="M221 257.432L220.898 257.5L220.898 257.381L-5.58562e-06 129.784L-5.58264e-06 129.716L220.898 2.11924L220.898 2.00001L221 2.06814L221.102 2.00001L221.102 2.11924L442 129.716L442 129.784L221.102 257.381L221.102 257.5L221 257.432Z" fill="url(#paint0_linear_4002_20379)"></path><path d="M-1.11697e-05 383.534L-1.11683e-05 383.5L-1.11668e-05 383.466L0 128L221.102 255.716L221.102 255.75L221.102 255.784L221.102 511.25L-1.11697e-05 383.534Z" fill="url(#paint1_linear_4002_20379)"></path><path d="M442.103 383.534L442.103 383.5L442.103 383.466L442.103 128L221 255.716L221 255.75L221 255.784L221 511.25L442.103 383.534Z" fill="url(#paint2_linear_4002_20379)"></path></g><defs><linearGradient id="paint0_linear_4002_20379" x1="221" y1="33" x2="220.582" y2="257.999" gradientUnits="userSpaceOnUse"><stop></stop><stop offset="1" stop-color="#75B530"></stop></linearGradient><linearGradient id="paint1_linear_4002_20379" x1="-4.0293e-06" y1="263.054" x2="211.764" y2="249.017" gradientUnits="userSpaceOnUse"><stop></stop><stop offset="1" stop-color="#41651B"></stop></linearGradient><linearGradient id="paint2_linear_4002_20379" x1="442.103" y1="262.986" x2="230.339" y2="248.949" gradientUnits="userSpaceOnUse"><stop></stop><stop offset="1" stop-color="#5B8D26"></stop></linearGradient><clipPath id="clip0_4002_20379"><rect width="511" height="442" fill="white" transform="matrix(-4.37114e-08 1 1 4.37114e-08 0 0)"></rect></clipPath></defs></svg>